<?xml version="1.0" encoding="utf-8"?>
<!-- Generator: Adobe Illustrator 25.2.0, SVG Export Plug-In . SVG Version: 6.00 Build 0)  -->
<svg version="1.1" id="Layer_1" xmlns="http://www.w3.org/2000/svg" xmlns:xlink="http://www.w3.org/1999/xlink" x="0px" y="0px"
	 viewBox="0 0 350 450" style="enable-background:new 0 0 350 450;" xml:space="preserve">
<style type="text/css">
	.st0{fill:#FAB334;stroke:#020203;stroke-width:3;stroke-miterlimit:10;}
	.st1{fill:#3EAB37;stroke:#020203;stroke-width:3;stroke-miterlimit:10;}
	.st2{fill:none;stroke:#020203;stroke-width:3;stroke-miterlimit:10;}
	.st3{fill:#683D14;stroke:#020203;stroke-width:3;stroke-miterlimit:10;}
	.st4{fill:#FDED4B;stroke:#020203;stroke-width:3;stroke-miterlimit:10;}
	.st5{fill:#E6351C;stroke:#020203;stroke-width:3;stroke-miterlimit:10;}
	.st6{fill:#D14E35;stroke:#020203;stroke-width:3;stroke-miterlimit:10;}
	.st7{fill:#020203;stroke:#020203;stroke-width:3;stroke-miterlimit:10;}
	.st8{fill:#FFFFFF;stroke:#020203;stroke-width:0.25;stroke-miterlimit:10;}
</style>
<path class="st0" d="M305.3,361.52c-0.24,5.5-8.46,14.62-10.07,16.4c-3.82,4.23-18.34,19.14-63.53,26.47
	c-37.72,6.11-65.51,1.86-85.77-1.41c-25.92-4.2-37.41-9.54-46.59-17.3c-11.12-9.41-18.28-21.92-18.06-23.51
	c0.01-0.07,0.03-0.11,0.06-0.14c0.59-0.5,4.13,5.76,11.3,7.42c8.94,2.06,12.79-5.5,21.17-3.89c8.88,1.71,8.82,11.01,17.3,12.36
	c8.56,1.36,11.54-7.64,20.12-6.71c10.01,1.09,10.53,13.85,20.82,15.88c9.68,1.92,12.62-8.7,26.12-9.88
	c14.42-1.26,18.24,10.24,30,7.77c12.54-2.65,12.97-16.74,25.41-18c9.08-0.93,12.48,6.22,20.47,3.52c6.57-2.21,6.36-7.74,14.47-11.29
	c5.86-2.56,14.12-3.24,16.24,0C305.18,359.86,305.34,360.64,305.3,361.52z"/>
<path class="st1" d="M312.52,350.74c-0.31,0.89-1.55,3.86-4.59,7.76c-0.84,1.08-1.72,2.08-2.63,3.02c0.04-0.88-0.12-1.66-0.54-2.31
	c-2.12-3.24-10.38-2.56-16.24,0c-8.11,3.55-7.9,9.08-14.47,11.29c-7.99,2.7-11.39-4.45-20.47-3.52c-12.44,1.26-12.87,15.35-25.41,18
	c-11.76,2.47-15.58-9.03-30-7.77c-13.5,1.18-16.44,11.8-26.12,9.88c-10.29-2.03-10.81-14.79-20.82-15.88
	c-8.58-0.93-11.56,8.07-20.12,6.71c-8.48-1.35-8.42-10.65-17.3-12.36c-8.38-1.61-12.23,5.95-21.17,3.89
	c-7.17-1.66-10.71-7.92-11.3-7.42c-0.03,0.03-0.05,0.07-0.06,0.14c-1.5-2.31-2.58-4.86-2.99-7.67c-0.54-3.69,0.16-7.26-2.59-10.47
	c-2.73-3.19-5.7-2.42-7.77-4.58c-5.85-6.11,3.89-27.71,10.24-27.18c0.32,0.03,0.6,0.11,0.86,0.23v0.01h0.01
	c1.34,2.14,2.68,4.23,4.04,6.26c0.02,0.04,0.05,0.09,0.08,0.13c0.82,1.49,1.86,3.15,3.3,4.92c0,0.01,0.01,0.01,0.01,0.02
	c0.7,0.87,1.49,1.75,2.4,2.66c3.05,3.05,6.32,5.22,11.89,8c32.76,16.33,69.53,19.77,69.53,19.77c1.84,0.17,3.64,0.32,5.41,0.44
	c0.57,0.54,1.11,1.1,1.64,1.68c3.64,3.97,6.79,8.39,12.95,10.35c1.77,0.57,4.18,1.31,7.05,0.71c5-1.05,7.09-5.25,11.3-9.89
	c0.74-0.81,1.97-1.86,3.86-3.3l0.01-0.01c6.04-0.54,11.54-1.23,16.6-1.86c16.49-2.07,24.82-4.47,30.82-6.59
	c0,0,19.83-6.99,33.65-18.82c1.55-1.34,2.77-2.43,3.68-3.28l0.01-0.01c2.06-1.69,5.1-4.55,7.75-8.83c0.38-0.34,0.74-0.5,1.15-0.47
	c1.17,0.1,2.41,1.76,4.82,13.53C314.33,344.19,313.42,348.19,312.52,350.74z"/>
<path class="st2" d="M202.76,373.8"/>
<path class="st3" d="M175.7,354.71c-1.77-0.12-3.57-0.27-5.41-0.44c0,0-36.77-3.44-69.53-19.77c-5.57-2.78-8.84-4.95-11.89-8
	c-0.91-0.91-1.7-1.79-2.4-2.66c0-0.01-0.01-0.01-0.01-0.02c-1.1-1.6-2.2-3.25-3.3-4.92c-0.03-0.04-0.06-0.09-0.08-0.13
	c-1.75-3.18-2.53-5.52-4.04-6.26h-0.01v-0.01c-0.56-0.89-1.12-1.79-1.69-2.7c-2.06-3.35-2.16-4.95-1.83-5.77
	c0.05-0.14,0.12-0.25,0.19-0.35c1.88-2.57,11.12,1.19,16.7,3.53c29.5,12.38,51.13,21.46,69.41,36.47
	C166.37,347.42,171.47,350.61,175.7,354.71z"/>
<path class="st3" d="M305.02,314.86c-1.06,0.94-2.34,3.25-5.56,6.7c0,0-0.68,0.73-2.19,2.13l-0.01,0.01
	c-0.91,0.85-2.13,1.94-3.68,3.28c-13.82,11.83-33.65,18.82-33.65,18.82c-6,2.12-14.33,4.52-30.82,6.59
	c-5.06,0.63-10.56,1.32-16.6,1.86c2.21-1.71,5.31-3.96,9.54-7.04c22.02-15.98,33.03-23.98,43.53-29.41
	c10.16-5.26,15.95-6.96,27.53-10.35c5-1.47,8.66-2.38,11.16-2.6c1.34,0.21,2.55,0.43,3.64,0.66h0.01c0.09,0.09,0.18,0.19,0.25,0.29
	C309.48,307.67,307.07,311.55,305.02,314.86z"/>
<path class="st4" d="M321.34,307.21c-2.49,2.21-7.74-0.01-8.94-0.47c-1.1-0.43-2.61-0.84-4.48-1.23h-0.01
	c-0.67-0.61-1.86-0.81-3.64-0.66c-2.5,0.22-6.16,1.13-11.16,2.6c-11.58,3.39-17.37,5.09-27.53,10.35
	c-10.5,5.43-21.51,13.43-43.53,29.41c-4.23,3.08-7.33,5.33-9.54,7.04l-0.01,0.01c-1.89,1.44-3.12,2.49-3.86,3.3
	c-4.21,4.64-6.3,8.84-11.3,9.89c-2.87,0.6-5.28-0.14-7.05-0.71c-6.16-1.96-9.31-6.38-12.95-10.35c-0.53-0.58-1.07-1.14-1.64-1.68
	c-4.23-4.1-9.33-7.29-13.89-11.03c-18.28-15.01-39.91-24.09-69.41-36.47c-5.58-2.34-14.82-6.1-16.7-3.53
	c-0.07,0.1-0.14,0.21-0.19,0.35c-1.09-0.17-2.56-0.43-4.28-0.82c-0.83-0.19-1.75-0.42-3.83-1c-3.77-1.06-5.65-1.59-5.82-1.82
	c-1.54-2.17,7.16-12.74,19.06-21.89c1.67-1.29,3.39-2.53,5.14-3.71l0.79,0.44c0.01,1.31,0.16,2.6,0.45,3.87
	c5.63,24.7,61.37,33.04,124.5,18.64c30.56-6.97,57.25-18,76.01-30.32l2.34,0.87c5.63,2.95,11.2,6.26,16.65,9.98
	c1.92,1.31,12.68,8.86,15.53,20.47C322.51,300.6,323.58,305.22,321.34,307.21z"/>
<path class="st2" d="M275.74,272.91c-0.69-0.36-1.37-0.71-2.06-1.06"/>
<path class="st2" d="M86.58,274.24c-0.27,0.18-0.54,0.36-0.8,0.55"/>
<path class="st5" d="M114.99,265.56c-1.63-2.66,5.19-9.62,7.29-11.76c1.46-1.49,7.36-7.28,18.12-11.06
	c9.77-3.43,17.83-3.18,26.82-2.82c4.75,0.19,21.58,0.86,21.88,4c0.26,2.66-11.58,4.52-38.82,12.94
	C127.32,263.95,116.77,268.48,114.99,265.56z M195.93,260.39c-1.7,5.88-3.14,10.83-6.12,14.35c-4,4.72-10.08,6.04-22.12,6.82
	c-17.6,1.16-38.85,2.55-39.76-2.11c-0.24-1.21,0.84-3,36.7-19.06c20.16-9.03,30.14-13.08,32.71-9.88
	C198.4,251.83,197.58,254.68,195.93,260.39z M202.52,237.56c-3.39,0.84-5.4-0.82-14.59-5.17c-12.59-5.95-15.7-6.08-15.77-8
	c-0.17-5.15,22.13-9.27,24.24-9.65c5.29-0.95,22.05-3.97,24,0.71c0.68,1.64-2.28,5.35-8.24,12.7
	C205.31,236.61,203.7,237.27,202.52,237.56z M243.46,263.21c-0.04,0.02-0.08,0.03-0.12,0.05h-0.01
	c-10.18,4.18-26.39,10.63-32.11,4.42c-2.95-3.2-3.24-9.93-3.29-11.06c-0.06-1.35-0.27-6.07,1.41-9.17
	c3.59-6.64,15.6-5.49,33.41-5.89c27.17-0.6,35.67-4.08,36.71-1.17C281.22,245.31,257.64,257.39,243.46,263.21z M291.69,225.09
	c-0.57,3.5-9.7,3.19-35.76,7.3c-23.28,3.67-33.78,6.72-35.06,3.76c-0.92-2.12,3.51-6.03,10.82-12.47c6.53-5.75,9.8-8.63,14.83-10.59
	c9.93-3.87,19.12-1.61,23.76-0.47C279.3,214.84,292.4,220.77,291.69,225.09z M226.95,202.41c47.15-4.63,84.12,4.66,88.66,24.53
	c2.89,12.68-7.99,27.21-27.8,40.29c-0.09,0.06-0.19,0.12-0.28,0.19c-18.76,12.32-45.45,23.35-76.01,30.32
	c-63.13,14.4-118.87,6.06-124.5-18.64c-0.29-1.27-0.44-2.56-0.45-3.87c-0.02-0.33-0.01-0.65,0.01-0.99
	c0.63-17.06,23.59-36.54,58.21-51.18"/>
<path class="st0" d="M304.97,144.51c-1.18,8.17-5.42,14.91-12.7,22.59c-6.34,6.69-19.75,19.12-65.32,35.31l-82.16,20.65
	c-13.52,1.24-23.76,1.91-36.76-0.9c-5.23-1.13-44.95-9.73-51.53-36c-2.06-8.22-0.26-15.74,0.81-20.21
	c1.3-5.45,4.81-16.27,17.55-29.2c5.42-5.5,11.17-10.45,16.99-14.86c3.23,13.35,8.11,23.85,13.6,24.74
	c3.86,0.63,5.76-3.87,18.82-9.41c13.13-5.57,17.71-3.78,20.24-7.06c4.1-5.32-0.87-19.16-9.22-33.04
	c11.53-4.86,19.33-6.96,19.33-6.96c1.63-0.44,4.2-1.13,7.53-1.94c3.09,16.38,8.65,30.4,15.03,31.43c3.86,0.63,5.77-3.87,18.82-9.41
	c13.14-5.57,17.71-3.78,20.24-7.06c3.02-3.91,1.12-12.45-3.42-22.23c26.58-0.82,56.04,3.79,75.06,23.51
	C291.8,108.53,307.8,125.1,304.97,144.51z"/>
<path class="st2" d="M144.79,223.06c0.68-0.06,1.37-0.12,2.07-0.19c13.66-1.27,27.67-3.87,54.35-12c9.56-2.92,18.1-5.74,25.74-8.46"
	/>
<path class="st6" d="M195.93,260.39c-1.7,5.88-3.14,10.83-6.12,14.35c-4,4.72-10.08,6.04-22.12,6.82
	c-17.6,1.16-38.85,2.55-39.76-2.11c-0.24-1.21,0.84-3,36.7-19.06c20.16-9.03,30.14-13.08,32.71-9.88
	C198.4,251.83,197.58,254.68,195.93,260.39z"/>
<path class="st6" d="M243.46,263.21c-0.04,0.02-0.08,0.03-0.12,0.05h-0.01c-10.18,4.18-26.39,10.63-32.11,4.42
	c-2.95-3.2-3.24-9.93-3.29-11.06c-0.06-1.35-0.27-6.07,1.41-9.17c3.59-6.64,15.6-5.49,33.41-5.89c27.17-0.6,35.67-4.08,36.71-1.17
	C281.22,245.31,257.64,257.39,243.46,263.21z"/>
<path class="st6" d="M291.69,225.09c-0.57,3.5-9.7,3.19-35.76,7.3c-23.28,3.67-33.78,6.72-35.06,3.76
	c-0.92-2.12,3.51-6.03,10.82-12.47c6.53-5.75,9.8-8.63,14.83-10.59c9.93-3.87,19.12-1.61,23.76-0.47
	C279.3,214.84,292.4,220.77,291.69,225.09z"/>
<path class="st6" d="M212.16,228.15c-6.85,8.46-8.46,9.12-9.64,9.41c-3.39,0.84-5.4-0.82-14.59-5.17c-12.59-5.95-15.7-6.08-15.77-8
	c-0.17-5.15,22.13-9.27,24.24-9.65c5.29-0.95,22.05-3.97,24,0.71C221.08,217.09,218.12,220.8,212.16,228.15z"/>
<path class="st6" d="M189.1,243.92c0.26,2.66-11.58,4.52-38.82,12.94c-22.96,7.09-33.51,11.62-35.29,8.7
	c-1.63-2.66,5.19-9.62,7.29-11.76c1.46-1.49,7.36-7.28,18.12-11.06c9.77-3.43,17.83-3.18,26.82-2.82
	C171.97,240.11,188.8,240.78,189.1,243.92z"/>
<path class="st2" d="M135.29,97.12c-11.66-19.36-29.89-38.78-39.25-35.19c-10.41,3.99-9.88,36.4-4.19,59.96
	c3.23,13.35,8.11,23.85,13.6,24.74c3.86,0.63,5.76-3.87,18.82-9.41c13.13-5.57,17.71-3.78,20.24-7.06
	C148.61,124.84,143.64,111,135.29,97.12z M126.37,128.75c-3.76,0-6.81-4.74-6.81-10.59s3.05-10.59,6.81-10.59
	c3.75,0,6.8,4.74,6.8,10.59S130.12,128.75,126.37,128.75z"/>
<path class="st2" d="M212.82,80.95c-10.24-22-33.91-50.27-45.05-46c-9.46,3.62-9.89,30.69-5.62,53.27
	c3.09,16.38,8.65,30.4,15.03,31.43c3.86,0.63,5.77-3.87,18.82-9.41c13.14-5.57,17.71-3.78,20.24-7.06
	C219.26,99.27,217.36,90.73,212.82,80.95z M185.34,107.11c-3.28,1.06-7.26-2.15-8.89-7.18c-1.62-5.03-0.29-9.96,2.99-11.03
	c3.28-1.06,7.26,2.15,8.89,7.18C189.96,101.11,188.62,106.04,185.34,107.11z"/>
<path class="st7" d="M133.17,118.16c0,5.85-3.05,10.59-6.8,10.59c-3.76,0-6.81-4.74-6.81-10.59s3.05-10.59,6.81-10.59
	C130.12,107.57,133.17,112.31,133.17,118.16z"/>
<path class="st7" d="M185.34,107.11c-3.28,1.06-7.26-2.15-8.89-7.18c-1.62-5.03-0.29-9.96,2.99-11.03c3.28-1.06,7.26,2.15,8.89,7.18
	C189.96,101.11,188.62,106.04,185.34,107.11z"/>
<ellipse transform="matrix(0.8453 -0.5343 0.5343 0.8453 -69.3574 88.302)" class="st8" cx="117.8" cy="163.92" rx="3.7" ry="6.38"/>
<ellipse transform="matrix(0.8453 -0.5343 0.5343 0.8453 -48.7982 106.5285)" class="st8" cx="159.56" cy="137.53" rx="3.7" ry="6.38"/>
<ellipse transform="matrix(0.8453 -0.5343 0.5343 0.8453 -66.6321 107.2734)" class="st8" cx="151.93" cy="168.7" rx="3.7" ry="6.38"/>
<ellipse transform="matrix(0.8453 -0.5343 0.5343 0.8453 -65.9333 72.5497)" class="st8" cx="92.32" cy="150.13" rx="3.7" ry="6.38"/>
<ellipse transform="matrix(0.8453 -0.5343 0.5343 0.8453 -58.5278 98.1273)" class="st8" cx="140.19" cy="150.13" rx="3.7" ry="6.38"/>
<ellipse transform="matrix(0.8453 -0.5343 0.5343 0.8453 -36.9566 102.9859)" class="st8" cx="159.36" cy="115.31" rx="3.7" ry="6.38"/>
<ellipse transform="matrix(0.8453 -0.5343 0.5343 0.8453 -43.3685 120.8288)" class="st8" cx="186.97" cy="135.3" rx="3.7" ry="6.38"/>
<ellipse transform="matrix(0.8453 -0.5343 0.5343 0.8453 -55.2502 117.7824)" class="st8" cx="175.77" cy="154.3" rx="3.7" ry="6.38"/>
<ellipse transform="matrix(0.8453 -0.5343 0.5343 0.8453 -33.0678 129.9629)" class="st8" cx="207.89" cy="122.08" rx="3.7" ry="6.38"/>
<ellipse transform="matrix(0.8453 -0.5343 0.5343 0.8453 -43.6857 135.7138)" class="st8" cx="212.51" cy="143.3" rx="3.7" ry="6.38"/>
<ellipse transform="matrix(0.8453 -0.5343 0.5343 0.8453 -13.1107 139.0098)" class="st8" cx="233.49" cy="92.14" rx="3.7" ry="6.38"/>
<ellipse transform="matrix(0.8453 -0.5343 0.5343 0.8453 -26.267 148.7469)" class="st8" cx="243.73" cy="119.73" rx="3.7" ry="6.38"/>
<ellipse transform="matrix(0.8453 -0.5343 0.5343 0.8453 -26.0109 138.9578)" class="st8" cx="226.95" cy="114.4" rx="3.7" ry="6.38"/>
</svg>
